# xmcd
# 
# Track frame offsets:
#     150
#     21283
#     40150
#     63713
#     81824
#     98700
#     117332
#     138808
#     154244
#     170207
#     186083
#     200951
#     215399
#     225937
#     240526
# 
# Disc length: 3484
# 
# Revision: 1
# Processed by: cddbd v1.5.2PL0 Copyright (c) Steve Scherf et al.
# Submitted via: fre:ac v1.0.31
# 
DISCID=cf0d9a0f
DTITLE=Selena - La Leyenda CD2
DYEAR=2010
DGENRE=Tex-Mex
TTITLE0=I Could Fall In Love
TTITLE1=Only Love
TTITLE2=Dreaming Of You
TTITLE3=I'm Getting Use To You
TTITLE4=Where Did The Feeling Go?
TTITLE5=Is It The Beat?
TTITLE6=Buenos Amigos Ft. Alvaro Torres
TTITLE7=Aunque No Salga El Sol
TTITLE8=No Quiero Saber
TTITLE9=Que Creias
TTITLE10=No Me Queda Mas
TTITLE11=Tu Solo Tu
TTITLE12=El Toro Relajo
TTITLE13=Siempre Hace Frio
TTITLE14=Como Te Extrano
EXTD=
EXTT0=
EXTT1=
EXTT2=
EXTT3=
EXTT4=
EXTT5=
EXTT6=
EXTT7=
EXTT8=
EXTT9=
EXTT10=
EXTT11=
EXTT12=
EXTT13=
EXTT14=
PLAYORDER=
